PathFileType	4	(X/Y/Z)	Run_500 02
DataRate	CameraRate	NumFrames	NumMarkers	Units	OrigDataRate	OrigDataStartFrame	OrigNumFrames
120	120	7	42	mm	120	183	128
Frame#	Time	LASI			RASI			LPSI			RPSI			RTH1			RTH2			RTH3			LTH1			LTH2			LTH3			RTB1			RTB2			LTB1			LTB2			LTB3			RCAL			RTOE			RMT5			LCAL			LTOE			LMT5			LACR			RACR			CLAV			C7			RUA1			RUA2			RUA3			RLEL			RMEL			LUA1			LUA2			LUA3			LLEL			LMEL			RFAsuperior			RFAradius			RFAulna			LFAsuperior			LFAradius			LFAulna			RTB3			
		X1	Y1	Z1	X2	Y2	Z2	X3	Y3	Z3	X4	Y4	Z4	X5	Y5	Z5	X6	Y6	Z6	X7	Y7	Z7	X8	Y8	Z8	X9	Y9	Z9	X10	Y10	Z10	X11	Y11	Z11	X12	Y12	Z12	X13	Y13	Z13	X14	Y14	Z14	X15	Y15	Z15	X16	Y16	Z16	X17	Y17	Z17	X18	Y18	Z18	X19	Y19	Z19	X20	Y20	Z20	X21	Y21	Z21	X22	Y22	Z22	X23	Y23	Z23	X24	Y24	Z24	X25	Y25	Z25	X26	Y26	Z26	X27	Y27	Z27	X28	Y28	Z28	X29	Y29	Z29	X30	Y30	Z30	X31	Y31	Z31	X32	Y32	Z32	X33	Y33	Z33	X34	Y34	Z34	X35	Y35	Z35	X36	Y36	Z36	X37	Y37	Z37	X38	Y38	Z38	X39	Y39	Z39	X40	Y40	Z40	X41	Y41	Z41	X42	Y42	Z42	

178	1.641667	953.705419	1024.179941	-750.932678	902.912592	1040.697999	-492.818752	764.171553	1072.709804	-701.162239	746.860383	1076.514381	-621.021238	818.1729	878.186022	-453.975045	870.040162	765.299	-456.901471	799.611743	654.258928	-504.601041	969.918151	837.466453	-800.749784	1095.202474	776.773432	-784.746456	1102.561057	658.223717	-767.081294	804.258898	356.166728	-603.1160180000001	748.656999	306.967959	-542.6575350000001	1079.824574	503.375997	-696.4507149999999	988.686011	506.123735	-751.046111	882.19708	455.719149	-691.6232639999999	518.884262	137.125558	-651.974404	742.379013	66.47273	-667.305751	665.192547	49.534293	-576.368013	713.146971	517.718483	-678.093659	774.286839	291.62937	-684.183095	731.448121	356.838225	-767.906525	952.500041	1500.884771	-805.605159	977.133783	1499.503199	-465.923786	1004.414285	1442.093185	-602.336111	884.534113	1541.156269	-621.808995	971.903823	1403.913843	-377.581318	986.999591	1317.233839	-369.013165	923.155555	1306.791292	-322.123646	939.063215	1185.125882	-255.680586	901.572702	1149.77843	-323.598699	911.4044249999999	1422.539158	-884.9068130000001	900.99608	1352.314699	-885.961634	804.387074	1375.605956	-890.953853	754.113209	1229.662172	-962.5463999999999	698.427103	1232.515302	-894.0571179999999	1042.922624	1202.494415	-291.193468	1160.938508	1223.205453	-424.321802	1185.978879	1188.460209	-364.503331	837.8464750000001	1190.662892	-924.960706	953.526831	1145.411857	-799.981409	942.281071	1083.382897	-834.4527890000001	706.505893	227.205929	-620.855827	
179	1.65	955.487675	1031.255135	-747.466962	902.26805	1042.988208	-489.827498	765.7198059999999	1078.976593	-700.398253	748.412347	1081.075946	-619.969273	813.614644	882.118615	-454.03307	858.011275	766.9706210000001	-457.369475	780.624779	659.919516	-505.649608	975.157425	849.039098	-800.5616240000001	1102.236502	793.671856	-783.435604	1114.589355	675.158332	-766.30046	771.751907	360.764919	-601.873531	714.3493999999999	313.11736	-541.763931	1102.293205	511.559319	-695.800471	1011.405057	505.643198	-750.0928280000001	910.564931	443.290059	-690.870455	482.234781	148.598539	-649.7560570000001	701.595952	66.244984	-666.599649	623.507771	50.886679	-576.9656199999999	735.945139	486.116873	-675.284073	822.812139	268.471908	-686.301482	772.092913	330.209191	-768.759577	946.584448	1508.707874	-806.2542560000001	979.054539	1507.846801	-468.305733	1004.687725	1449.751041	-604.903048	883.66848	1546.872482	-621.407143	977.4361699999999	1412.510317	-381.082385	994.5825630000001	1325.51523	-374.414227	933.7294879999999	1315.040004	-323.598962	951.249758	1191.615262	-260.224963	911.912808	1156.945691	-328.094799	901.938172	1434.51668	-885.542056	892.098525	1364.188416	-888.716766	795.510676	1387.483411	-887.066813	741.350909	1243.690143	-960.783377	687.8962770000001	1246.305894	-890.6580290000001	1052.53132	1215.292212	-299.329376	1163.818678	1244.215218	-436.286171	1192.841762	1209.999499	-377.839396	826.043892	1204.839523	-925.919427	944.077703	1159.258749	-802.79216	933.264767	1097.380975	-837.964551	670.411431	233.574431	-619.607873	
180	1.658333	957.59596	1038.639757	-744.483459	903.592461	1045.684098	-487.730641	767.65191	1085.72067	-699.238593	750.691865	1085.903277	-618.391978	810.812337	886.3517440000001	-453.965786	846.763783	769.549669	-458.346231	762.156337	667.1736560000001	-506.531023	980.059309	860.7197650000001	-800.22952	1108.232835	810.411807	-781.7975740000001	1124.488883	691.66928	-766.2338130000001	739.247822	367.621136	-600.061211	680.145717	321.565317	-540.334919	1123.61675	519.0751	-695.180559	1033.606921	503.874003	-749.041669	939.810069	430.65528	-689.69624	447.001624	161.31762	-647.41219	661.015082	65.548545	-665.809797	582.345998	52.759583	-577.430204	762.054161	453.612465	-671.952538	873.045169	247.319355	-687.73286	814.752218	304.55893	-768.819152	941.26103	1516.769733	-806.651615	980.5121370000001	1516.838091	-470.62925	1004.990182	1457.973208	-607.427781	883.017478	1552.953318	-621.283505	982.547145	1421.601423	-384.584437	1001.238667	1334.467091	-379.725119	942.813773	1324.065963	-326.170857	962.10722	1199.217537	-264.840603	921.12854	1165.051528	-332.457221	893.395112	1446.781018	-885.528646	883.806573	1376.397504	-890.702656	787.432597	1399.53829	-882.6778440000001	728.999199	1258.053728	-958.356757	678.487488	1260.329815	-886.6329950000001	1060.569294	1228.166834	-307.429402	1164.52036	1264.798674	-447.886279	1197.245842	1230.749941	-391.554135	814.1265090000001	1218.631138	-926.774759	935.235127	1173.139816	-805.169496	924.473465	1111.457586	-841.056448	635.129269	241.646966	-617.93548	
181	1.666667	959.928188	1046.458826	-742.226755	906.961632	1048.72665	-486.757847	769.864358	1092.809915	-697.698427	753.7033719999999	1091.046313	-616.417194	808.91413	890.695498	-453.915038	836.485273	773.10525	-459.772249	744.469232	675.9553079999999	-506.971764	984.738979	872.206893	-799.745438	1113.197877	826.236572	-779.904168	1132.099798	707.063189	-766.74355	707.452357	376.279156	-597.939386	646.769885	331.844506	-538.52858	1143.778757	525.74881	-694.4457190000001	1055.423626	500.777613	-747.91071	970.108732	417.931264	-688.1038119999999	414.262147	175.049411	-645.074328	621.097659	64.394221	-664.9300040000001	542.291327	55.25255	-577.574099	791.414343	420.815307	-668.416236	924.627225	228.423089	-688.030587	859.297268	279.805287	-767.7361110000001	936.781795	1524.796228	-806.808675	981.74973	1526.147171	-473.024931	1005.204171	1466.496436	-609.877458	882.5350089999999	1559.156333	-621.478059	987.033392	1431.061987	-388.023888	1006.9504	1343.936342	-384.723765	950.223646	1333.376059	-329.488977	971.627872	1207.677945	-269.358481	929.484493	1173.682756	-336.495314	885.976039	1458.873313	-884.9362	876.160679	1388.624261	-891.892961	780.102009	1411.658121	-878.119017	717.153439	1272.481645	-955.314807	670.310997	1274.349669	-882.079745	1067.216624	1240.891446	-315.206559	1163.298997	1284.610924	-458.996376	1199.481385	1250.492849	-405.319065	802.472327	1231.984636	-927.045971	927.050663	1186.742326	-807.328842	915.895046	1125.279072	-843.689847	601.712642	250.880703	-615.77492	
182	1.675	962.3398110000001	1054.722357	-740.659165	911.8935279999999	1052.079962	-486.740514	772.343024	1100.046912	-695.780675	757.361641	1096.578197	-614.183789	807.227828	895.255378	-453.802008	827.05229	777.72262	-461.466928	727.853962	686.152763	-507.041962	989.208307	883.426588	-799.252341	1117.177925	840.2736169999999	-778.046262	1137.280202	720.474962	-767.234753	677.2308389999999	386.501454	-596.016134	615.076869	343.6718	-536.6992289999999	1162.491137	531.40399	-693.608888	1076.919781	496.484322	-746.809672	1001.289619	405.319393	-686.2065	385.138174	190.155165	-642.699889	581.962778	63.112786	-663.928639	503.416744	58.716583	-577.3276969999999	823.682536	388.338395	-665.093916	977.180436	212.003827	-686.815424	905.695721	255.888202	-765.3700679999999	933.192845	1532.525388	-806.825063	982.869973	1535.478569	-475.68269	1005.251108	1475.03814	-612.252968	882.121315	1565.218503	-621.979113	990.748207	1440.742155	-391.379124	1011.701608	1353.797683	-389.221972	955.843108	1342.602689	-333.293771	979.804586	1216.7244	-273.645068	936.966998	1182.524629	-340.081136	879.758369	1470.366733	-883.9008	869.1827029999999	1400.511083	-892.364225	773.576049	1423.685021	-873.605408	705.9324360000001	1286.710199	-951.724438	663.097773	1288.189951	-877.0532470000001	1072.559087	1253.42807	-322.450053	1160.445147	1303.392105	-469.470228	1199.863069	1269.12941	-418.664261	791.463038	1244.979619	-926.386606	919.555405	1199.816056	-809.440801	907.545056	1138.53256	-845.80774	570.936337	261.014537	-613.2900069999999	
183	1.683333	964.643387	1063.233555	-739.553272	917.651355	1055.6985	-487.316807	775.129757	1107.212657	-693.484154	761.4631869999999	1102.515791	-611.727577	805.5069580000001	900.286355	-453.388796	818.243437	783.3888449999999	-463.12833	712.685446	697.59249	-507.072525	993.240734	894.294967	-798.8361200000001	1120.198698	851.742462	-776.596498	1140.02885	731.074328	-766.821802	649.372972	398.321622	-594.767793	585.896325	357.023727	-535.2141800000001	1179.526781	535.855134	-692.788766	1098.090656	491.222464	-745.87444	1032.936774	393.028664	-684.228382	360.457501	207.297289	-640.134143	543.645005	62.490477	-662.660445	465.582311	63.906641	-576.727226	858.352198	356.721401	-662.440545	1030.236718	198.3168	-683.916527	953.895852	232.952203	-761.851398	930.3705200000001	1539.756225	-806.8195459999999	983.8184659999999	1544.602658	-478.702785	1005.139791	1483.237784	-614.527299	881.699613	1570.928101	-622.732132	993.734591	1450.447307	-394.679516	1015.493228	1363.874756	-393.088453	959.675963	1351.563404	-337.35726	986.645316	1226.069596	-277.571749	943.371393	1191.398131	-343.149325	874.688328	1480.945325	-882.610101	862.903309	1411.675961	-892.258811	767.992433	1435.387493	-869.258236	695.451998	1300.476293	-947.689519	656.413285	1301.693275	-871.633475	1076.598695	1265.738987	-329.101328	1156.230905	1320.931219	-479.168897	1198.690926	1286.593965	-431.146905	781.300999	1257.661445	-924.87049	912.743612	1212.205031	-811.523092	899.485421	1151.006543	-847.402904	543.105458	272.20113	-610.813532	
184	1.691667	966.619745	1071.598504	-738.707259	923.610144	1059.508846	-488.171787	778.209167	1114.104301	-690.8208530000001	765.698189	1108.733902	-608.952998	803.891208	905.945605	-452.479485	810.084348	789.876302	-464.369839	699.409295	709.978653	-507.441481	996.330319	904.311133	-798.318408	1122.190008	860.120359	-775.799085	1140.639738	738.338066	-764.8372879999999	624.403417	411.740098	-594.475454	559.925134	371.855086	-534.351764	1194.858005	538.972033	-692.065184	1118.859351	485.229148	-745.186458	1064.606464	381.222788	-682.424351	340.205533	226.895746	-637.376761	506.399047	63.807158	-660.926405	428.885293	71.920608	-575.847704	894.888341	326.32518	-660.801659	1083.232035	187.61552	-679.406329	1003.72936	211.436146	-757.503767	928.104132	1546.355657	-806.8460260000001	984.467999	1553.333856	-482.007201	1004.959089	1490.69305	-616.621349	881.239205	1576.144262	-623.652771	996.126019	1459.980864	-397.957694	1018.352539	1373.929961	-396.258942	961.89556	1360.267923	-341.371627	992.189442	1235.410257	-281.019552	948.463091	1200.211049	-345.674446	870.586142	1490.436664	-881.277991	857.348462	1421.790097	-891.7447079999999	763.4521549999999	1446.488555	-865.1587029999999	685.809298	1313.513021	-943.379263	649.996406	1314.638407	-866.021257	1079.322165	1277.669056	-335.225777	1150.880121	1337.055253	-487.990253	1196.223913	1302.79606	-442.479735	772.012938	1269.950152	-922.892642	906.586354	1223.824646	-813.473112	891.83087	1162.59878	-848.536852	518.06422	284.811841	-608.778183	
